<svg width="19" height="21" viewBox="0 0 19 21" fill="none" xmlns="http://www.w3.org/2000/svg">
<path d="M12.1465 15.8536H17.1465L15.7415 14.4486C15.5528 14.2599 15.4031 14.0359 15.3011 13.7893C15.199 13.5428 15.1464 13.2785 15.1465 13.0116V9.85364C15.1466 8.61257 14.7621 7.40198 14.0457 6.38853C13.3294 5.37507 12.3165 4.6086 11.1465 4.19464V3.85364C11.1465 3.3232 10.9358 2.8145 10.5607 2.43942C10.1856 2.06435 9.67692 1.85364 9.14648 1.85364C8.61605 1.85364 8.10734 2.06435 7.73227 2.43942C7.3572 2.8145 7.14648 3.3232 7.14648 3.85364V4.19464C4.81648 5.01864 3.14648 7.24164 3.14648 9.85364V13.0126C3.14648 13.5506 2.93248 14.0676 2.55148 14.4486L1.14648 15.8536H6.14648M12.1465 15.8536V16.8536C12.1465 17.6493 11.8304 18.4123 11.2678 18.975C10.7052 19.5376 9.94213 19.8536 9.14648 19.8536C8.35083 19.8536 7.58777 19.5376 7.02516 18.975C6.46255 18.4123 6.14648 17.6493 6.14648 16.8536V15.8536M12.1465 15.8536H6.14648" stroke="white" stroke-width="2" stroke-linecap="round" stroke-linejoin="round"/>
</svg>
