<svg width="17" height="15" viewBox="0 0 17 15" fill="none" xmlns="http://www.w3.org/2000/svg">
<path fill-rule="evenodd" clip-rule="evenodd" d="M2.53662 2.19519C2.00619 2.19519 1.49748 2.4059 1.12241 2.78098C0.747335 3.15605 0.536621 3.66476 0.536621 4.19519V12.1952C0.536621 12.7256 0.747335 13.2343 1.12241 13.6094C1.49748 13.9845 2.00619 14.1952 2.53662 14.1952H14.5366C15.0671 14.1952 15.5758 13.9845 15.9508 13.6094C16.3259 13.2343 16.5366 12.7256 16.5366 12.1952V4.19519C16.5366 3.66476 16.3259 3.15605 15.9508 2.78098C15.5758 2.4059 15.0671 2.19519 14.5366 2.19519H12.9506C12.6854 2.19513 12.4311 2.08974 12.2436 1.90219L11.1226 0.78119C10.7476 0.406092 10.239 0.195304 9.70862 0.19519H7.36462C6.83423 0.195304 6.32561 0.406092 5.95062 0.78119L4.82962 1.90219C4.64213 2.08974 4.38782 2.19513 4.12262 2.19519H2.53662ZM8.53662 11.1952C8.93059 11.1952 9.32069 11.1176 9.68467 10.9668C10.0486 10.8161 10.3794 10.5951 10.6579 10.3165C10.9365 10.0379 11.1575 9.70722 11.3083 9.34324C11.459 8.97926 11.5366 8.58916 11.5366 8.19519C11.5366 7.80122 11.459 7.41112 11.3083 7.04714C11.1575 6.68316 10.9365 6.35245 10.6579 6.07387C10.3794 5.79529 10.0486 5.57432 9.68467 5.42355C9.32069 5.27279 8.93059 5.19519 8.53662 5.19519C7.74097 5.19519 6.97791 5.51126 6.4153 6.07387C5.85269 6.63648 5.53662 7.39954 5.53662 8.19519C5.53662 8.99084 5.85269 9.7539 6.4153 10.3165C6.97791 10.8791 7.74097 11.1952 8.53662 11.1952V11.1952Z" fill="black"/>
</svg>
