<svg width="21" height="21" viewBox="0 0 21 21" fill="none" xmlns="http://www.w3.org/2000/svg">
<path fill-rule="evenodd" clip-rule="evenodd" d="M17.0487 5.7077C17.2362 5.89523 17.3415 6.14954 17.3415 6.4147C17.3415 6.67987 17.2362 6.93418 17.0487 7.1217L9.04872 15.1217C8.86119 15.3092 8.60688 15.4145 8.34172 15.4145C8.07655 15.4145 7.82224 15.3092 7.63472 15.1217L3.63472 11.1217C3.45256 10.9331 3.35176 10.6805 3.35404 10.4183C3.35632 10.1561 3.46149 9.90529 3.6469 9.71988C3.83231 9.53448 4.08312 9.42931 4.34531 9.42703C4.60751 9.42475 4.86011 9.52555 5.04872 9.7077L8.34172 13.0007L15.6347 5.7077C15.8222 5.52023 16.0766 5.41492 16.3417 5.41492C16.6069 5.41492 16.8612 5.52023 17.0487 5.7077Z" fill="white"/>
</svg>
