<svg width="19" height="5" viewBox="0 0 19 5" fill="none" xmlns="http://www.w3.org/2000/svg">
<path d="M2.51221 2.7074H2.52221M9.51221 2.7074H9.52221M16.5122 2.7074H16.5222M3.51221 2.7074C3.51221 2.97261 3.40685 3.22697 3.21931 3.4145C3.03178 3.60204 2.77742 3.7074 2.51221 3.7074C2.24699 3.7074 1.99264 3.60204 1.8051 3.4145C1.61756 3.22697 1.51221 2.97261 1.51221 2.7074C1.51221 2.44218 1.61756 2.18783 1.8051 2.00029C1.99264 1.81275 2.24699 1.7074 2.51221 1.7074C2.77742 1.7074 3.03178 1.81275 3.21931 2.00029C3.40685 2.18783 3.51221 2.44218 3.51221 2.7074V2.7074ZM10.5122 2.7074C10.5122 2.97261 10.4068 3.22697 10.2193 3.4145C10.0318 3.60204 9.77742 3.7074 9.51221 3.7074C9.24699 3.7074 8.99264 3.60204 8.8051 3.4145C8.61756 3.22697 8.51221 2.97261 8.51221 2.7074C8.51221 2.44218 8.61756 2.18783 8.8051 2.00029C8.99264 1.81275 9.24699 1.7074 9.51221 1.7074C9.77742 1.7074 10.0318 1.81275 10.2193 2.00029C10.4068 2.18783 10.5122 2.44218 10.5122 2.7074V2.7074ZM17.5122 2.7074C17.5122 2.97261 17.4069 3.22697 17.2193 3.4145C17.0318 3.60204 16.7774 3.7074 16.5122 3.7074C16.247 3.7074 15.9926 3.60204 15.8051 3.4145C15.6176 3.22697 15.5122 2.97261 15.5122 2.7074C15.5122 2.44218 15.6176 2.18783 15.8051 2.00029C15.9926 1.81275 16.247 1.7074 16.5122 1.7074C16.7774 1.7074 17.0318 1.81275 17.2193 2.00029C17.4069 2.18783 17.5122 2.44218 17.5122 2.7074V2.7074Z" stroke="black" stroke-width="2" stroke-linecap="round" stroke-linejoin="round"/>
</svg>
