<svg width="21" height="21" viewBox="0 0 21 21" fill="none" xmlns="http://www.w3.org/2000/svg">
<path d="M19.561 19.1464L13.561 13.1464M15.561 8.14636C15.561 9.06562 15.38 9.97587 15.0282 10.8251C14.6764 11.6744 14.1608 12.4461 13.5108 13.0961C12.8608 13.7461 12.0891 14.2617 11.2398 14.6135C10.3905 14.9653 9.48029 15.1464 8.56104 15.1464C7.64178 15.1464 6.73153 14.9653 5.88225 14.6135C5.03297 14.2617 4.2613 13.7461 3.61129 13.0961C2.96128 12.4461 2.44566 11.6744 2.09388 10.8251C1.7421 9.97587 1.56104 9.06562 1.56104 8.14636C1.56104 6.28985 2.29853 4.50937 3.61129 3.19661C4.92404 1.88386 6.70452 1.14636 8.56104 1.14636C10.4176 1.14636 12.198 1.88386 13.5108 3.19661C14.8235 4.50937 15.561 6.28985 15.561 8.14636Z" stroke="black" stroke-width="2" stroke-linecap="round" stroke-linejoin="round"/>
</svg>
