<svg width="21" height="21" viewBox="0 0 21 21" fill="none" xmlns="http://www.w3.org/2000/svg">
<path d="M9.65869 6.51221C9.65869 7.30786 9.34262 8.07092 8.78001 8.63353C8.2174 9.19614 7.45434 9.51221 6.65869 9.51221C5.86304 9.51221 5.09998 9.19614 4.53737 8.63353C3.97476 8.07092 3.65869 7.30786 3.65869 6.51221C3.65869 5.71656 3.97476 4.9535 4.53737 4.39089C5.09998 3.82828 5.86304 3.51221 6.65869 3.51221C7.45434 3.51221 8.2174 3.82828 8.78001 4.39089C9.34262 4.9535 9.65869 5.71656 9.65869 6.51221V6.51221ZM17.6587 6.51221C17.6587 6.90617 17.5811 7.29628 17.4303 7.66026C17.2796 8.02423 17.0586 8.35495 16.78 8.63353C16.5014 8.9121 16.1707 9.13308 15.8067 9.28385C15.4428 9.43461 15.0527 9.51221 14.6587 9.51221C14.2647 9.51221 13.8746 9.43461 13.5106 9.28385C13.1467 9.13308 12.8159 8.9121 12.5374 8.63353C12.2588 8.35495 12.0378 8.02423 11.8871 7.66026C11.7363 7.29628 11.6587 6.90617 11.6587 6.51221C11.6587 5.71656 11.9748 4.9535 12.5374 4.39089C13.1 3.82828 13.863 3.51221 14.6587 3.51221C15.4543 3.51221 16.2174 3.82828 16.78 4.39089C17.3426 4.9535 17.6587 5.71656 17.6587 6.51221V6.51221ZM13.5887 17.5122C13.6347 17.1852 13.6587 16.8522 13.6587 16.5122C13.661 14.9411 13.1324 13.4152 12.1587 12.1822C12.9188 11.7434 13.781 11.5123 14.6587 11.5123C15.5363 11.5123 16.3985 11.7433 17.1586 12.1822C17.9187 12.621 18.5499 13.2522 18.9888 14.0123C19.4276 14.7723 19.6587 15.6345 19.6587 16.5122V17.5122H13.5887ZM6.65869 11.5122C7.98477 11.5122 9.25654 12.039 10.1942 12.9767C11.1319 13.9144 11.6587 15.1861 11.6587 16.5122V17.5122H1.65869V16.5122C1.65869 15.1861 2.18548 13.9144 3.12316 12.9767C4.06084 12.039 5.33261 11.5122 6.65869 11.5122V11.5122Z" fill="black"/>
</svg>
