<svg width="22" height="22" viewBox="0 0 22 22" fill="none" xmlns="http://www.w3.org/2000/svg">
<path d="M14.3001 6.60005C14.3001 7.47526 13.9524 8.31463 13.3335 8.9335C12.7147 9.55237 11.8753 9.90005 11.0001 9.90005C10.1249 9.90005 9.28552 9.55237 8.66665 8.9335C8.04778 8.31463 7.7001 7.47526 7.7001 6.60005C7.7001 5.72483 8.04778 4.88547 8.66665 4.2666C9.28552 3.64773 10.1249 3.30005 11.0001 3.30005C11.8753 3.30005 12.7147 3.64773 13.3335 4.2666C13.9524 4.88547 14.3001 5.72483 14.3001 6.60005V6.60005ZM19.8001 8.80005C19.8001 9.38353 19.5683 9.9431 19.1557 10.3557C18.7432 10.7683 18.1836 11 17.6001 11C17.0166 11 16.457 10.7683 16.0445 10.3557C15.6319 9.9431 15.4001 9.38353 15.4001 8.80005C15.4001 8.21657 15.6319 7.65699 16.0445 7.24441C16.457 6.83183 17.0166 6.60005 17.6001 6.60005C18.1836 6.60005 18.7432 6.83183 19.1557 7.24441C19.5683 7.65699 19.8001 8.21657 19.8001 8.80005V8.80005ZM15.4001 16.5C15.4001 15.3331 14.9365 14.2139 14.1114 13.3888C13.2862 12.5636 12.167 12.1 11.0001 12.1C9.83314 12.1 8.71399 12.5636 7.88883 13.3888C7.06367 14.2139 6.6001 15.3331 6.6001 16.5V19.8H15.4001V16.5ZM6.6001 8.80005C6.6001 9.38353 6.36831 9.9431 5.95573 10.3557C5.54315 10.7683 4.98357 11 4.4001 11C3.81662 11 3.25704 10.7683 2.84446 10.3557C2.43188 9.9431 2.2001 9.38353 2.2001 8.80005C2.2001 8.21657 2.43188 7.65699 2.84446 7.24441C3.25704 6.83183 3.81662 6.60005 4.4001 6.60005C4.98357 6.60005 5.54315 6.83183 5.95573 7.24441C6.36831 7.65699 6.6001 8.21657 6.6001 8.80005V8.80005ZM17.6001 19.8V16.5C17.6017 15.3817 17.3177 14.2814 16.7751 13.3034C17.2628 13.1786 17.7725 13.1669 18.2654 13.269C18.7584 13.3712 19.2214 13.5846 19.6193 13.893C20.0173 14.2013 20.3395 14.5965 20.5614 15.0483C20.7834 15.5001 20.8992 15.9967 20.9001 16.5V19.8H17.6001ZM5.2251 13.3034C4.68252 14.2814 4.39856 15.3817 4.4001 16.5V19.8H1.1001V16.5C1.09989 15.9963 1.21501 15.4992 1.43664 15.0468C1.65827 14.5944 1.98053 14.1988 2.37872 13.8902C2.77691 13.5816 3.24046 13.3683 3.73384 13.2666C4.22722 13.1649 4.73734 13.1775 5.2251 13.3034V13.3034Z" fill="black"/>
</svg>
